<?xml version="1.0" encoding="utf-8"?>
<!-- Generator: Adobe Illustrator 16.0.0, SVG Export Plug-In . SVG Version: 6.00 Build 0)  -->
<!DOCTYPE svg PUBLIC "-//W3C//DTD SVG 1.1//EN" "http://www.w3.org/Graphics/SVG/1.1/DTD/svg11.dtd">
<svg version="1.1" id="Layer_1" xmlns="http://www.w3.org/2000/svg" xmlns:xlink="http://www.w3.org/1999/xlink" x="0px" y="0px"
	 width="660px" height="614.5px" viewBox="0 0 660 614.5" enable-background="new 0 0 660 614.5" xml:space="preserve">
<g>
	<path d="M331,596c-3.72,0-7.44-1.04-10.72-3.1c-119.8-75.98-213.66-167.521-278.96-272.08C20.64,287.7,11,254.66,11,216.86V200.6
		c0-42.92,16.78-83.34,47.26-113.82c4-4.021,8.141-7.82,12.42-11.42C101.32,49.6,139.1,36,179.96,36c60.9,0,118,31.56,151.021,82
		c32.881-50.42,89.199-81.98,149-81.98c42.239,0,80.721,13.6,111.301,39.32c4.3,3.62,8.46,7.44,12.46,11.44
		C634.22,117.26,651,157.7,651,200.6v16.26c0,37.8-9.62,70.84-30.32,103.96C555.34,425.4,461.48,516.94,341.7,592.9
		C338.44,594.96,334.72,596,331,596z M179.96,76c-31.32,0-60.2,10.36-83.5,29.96c-3.4,2.86-6.7,5.9-9.899,9.1
		C63.62,137.98,51,168.36,51,200.6v16.26c0,30.38,7.48,55.9,24.24,82.76C135.4,395.94,221.4,480.86,331,552.22
		c109.56-71.318,195.561-156.26,255.76-252.6c16.76-26.84,24.24-52.38,24.24-82.76V200.6c0-32.22-12.62-62.6-35.54-85.54
		c-3.2-3.22-6.5-6.24-9.92-9.12c-29.4-24.72-62.76-29.92-85.54-29.92c-51.24,0-101.16,31.8-124.18,79.16l-6.84,14.02
		c-6.7,13.76-29.262,13.76-35.961,0l-6.819-14.02C282.8,107.08,233.24,76,179.96,76z"/>
</g>
</svg>
